<?xml version="1.0" standalone="no"?>
<!DOCTYPE svg PUBLIC "-//W3C//DTD SVG 20010904//EN"
 "http://www.w3.org/TR/2001/REC-SVG-20010904/DTD/svg10.dtd">
<svg version="1.0" xmlns="http://www.w3.org/2000/svg"
 width="1000.000000pt" height="316.000000pt" viewBox="0 0 1000.000000 316.000000"
 preserveAspectRatio="xMidYMid meet">

<g transform="translate(0.000000,316.000000) scale(0.100000,-0.100000)"
fill="#000000" stroke="none">
<path d="M990 1495 c0 -245 3 -311 14 -333 17 -31 101 -115 133 -131 12 -6 72
-11 139 -11 l116 0 72 69 71 70 5 320 5 321 -72 0 -73 0 0 -284 0 -284 -40
-36 c-36 -32 -46 -36 -95 -36 -47 0 -59 4 -90 31 l-35 31 0 289 0 289 -75 0
-75 0 0 -305z"/>
<path d="M1712 1767 l-32 -33 0 -357 0 -357 75 0 75 0 0 160 0 161 155 -3 155
-3 0 73 0 72 -155 0 -156 0 3 88 3 87 178 3 177 2 0 70 0 70 -223 0 -223 0
-32 -33z"/>
<path d="M2290 1725 l0 -75 149 0 149 0 -164 -259 c-93 -147 -164 -270 -164
-283 0 -14 14 -38 33 -56 l33 -32 232 0 232 0 0 73 0 72 -165 -3 c-91 -2 -165
-1 -165 2 0 3 74 122 165 265 109 172 165 270 165 288 0 16 -11 39 -27 55
l-27 28 -223 0 -223 0 0 -75z"/>
<path d="M3450 1635 l0 -165 30 0 30 0 0 65 0 65 60 0 60 0 0 -65 0 -65 30 0
30 0 0 165 0 165 -30 0 -30 0 0 -65 0 -65 -60 0 -60 0 0 65 0 65 -30 0 -30 0
0 -165z"/>
<path d="M3777 1793 c-13 -12 -8 -298 5 -311 8 -8 46 -12 105 -12 l93 0 0 30
0 30 -75 0 -75 0 0 35 0 34 63 3 c62 3 62 3 62 33 0 30 0 30 -62 33 l-63 3 0
34 0 35 75 0 75 0 0 30 0 30 -98 0 c-54 0 -102 -3 -105 -7z"/>
<path d="M4050 1647 c0 -106 4 -157 12 -165 8 -8 45 -12 100 -12 l88 0 0 30 0
30 -70 0 -70 0 0 135 0 135 -30 0 -30 0 0 -153z"/>
<path d="M4310 1635 l0 -165 30 0 29 0 3 88 3 87 28 -52 c22 -43 32 -53 53
-53 21 0 29 9 47 50 12 27 25 50 30 50 4 0 7 -38 7 -85 l0 -85 30 0 30 0 0
165 0 165 -34 0 c-32 0 -34 -3 -69 -81 -20 -44 -41 -78 -46 -75 -4 3 -24 39
-42 81 -32 71 -36 75 -66 75 l-33 0 0 -165z"/>
<path d="M4670 1635 l0 -165 30 0 30 0 0 65 0 65 60 0 60 0 0 -65 0 -65 30 0
30 0 0 165 0 165 -30 0 -30 0 0 -65 0 -65 -60 0 -60 0 0 65 0 65 -30 0 -30 0
0 -165z"/>
<path d="M5007 1772 c-26 -27 -27 -32 -27 -138 0 -108 1 -111 28 -137 24 -23
36 -27 91 -27 56 0 66 3 92 29 28 29 29 31 29 138 0 107 -1 110 -28 136 -25
24 -36 27 -93 27 -58 0 -68 -3 -92 -28z m141 -44 c7 -7 12 -43 12 -93 0 -92
-7 -105 -60 -105 -53 0 -60 13 -60 105 0 92 7 105 60 105 20 0 41 -5 48 -12z"/>
<path d="M5280 1654 c0 -81 5 -154 10 -165 9 -17 22 -19 105 -19 l95 0 0 30 0
29 -71 3 -71 3 1 133 2 132 -36 0 -35 0 0 -146z"/>
<path d="M5488 1771 c4 -27 8 -30 44 -33 l40 -3 -1 -132 -2 -133 36 0 35 0 0
135 0 135 45 0 c43 0 45 1 45 30 l0 30 -123 0 -124 0 5 -29z"/>
<path d="M5778 1770 c4 -30 5 -30 68 -30 35 0 64 -3 64 -6 0 -4 -29 -53 -65
-109 -93 -146 -90 -155 57 -155 l98 0 0 30 0 29 -69 3 -69 3 69 109 c38 60 69
114 69 121 0 28 -26 35 -125 35 l-102 0 5 -30z"/>
<path d="M5167 1312 c-9 -10 -17 -33 -17 -50 0 -22 -5 -32 -15 -32 -8 0 -15
-4 -15 -10 0 -5 7 -10 15 -10 12 0 15 -17 15 -95 0 -78 3 -95 15 -95 12 0 15
17 15 95 0 94 0 95 24 95 14 0 28 5 31 10 4 6 -7 10 -25 10 -29 0 -31 2 -28
33 2 27 8 33 31 35 34 4 31 26 -4 30 -15 2 -32 -5 -42 -16z"/>
<path d="M5299 1314 c-9 -11 -9 -18 -1 -26 14 -14 42 -3 42 16 0 20 -27 27
-41 10z"/>
<path d="M5379 1314 c-9 -11 -9 -18 -1 -26 14 -14 42 -3 42 16 0 20 -27 27
-41 10z"/>
<path d="M6957 1323 c-4 -3 -7 -73 -7 -155 0 -125 2 -148 15 -148 13 0 15 24
15 155 0 142 -4 168 -23 148z"/>
<path d="M7228 1320 c-9 -6 -19 -28 -23 -50 -4 -25 -12 -40 -21 -40 -8 0 -14
-4 -14 -10 0 -5 7 -10 15 -10 12 0 15 -17 15 -95 0 -84 2 -95 18 -95 15 0 17
11 17 92 l0 93 28 3 c34 4 36 22 3 22 -30 0 -40 14 -32 46 5 19 13 24 37 24
20 0 29 4 27 13 -6 15 -48 20 -70 7z"/>
<path d="M8138 1176 c-3 -133 -1 -156 12 -156 12 0 15 16 15 79 0 87 12 111
54 111 43 0 51 -17 51 -107 0 -67 3 -83 15 -83 12 0 15 17 15 90 0 77 -3 93
-20 110 -24 24 -67 26 -99 4 l-23 -16 3 58 c2 36 -1 59 -9 62 -8 2 -12 -41
-14 -152z"/>
<path d="M3450 1310 c0 -6 30 -10 71 -10 85 0 86 10 -11 -145 -39 -61 -70
-117 -70 -123 0 -8 29 -12 95 -12 57 0 95 4 95 10 0 6 -32 10 -75 10 -41 0
-75 2 -75 5 0 3 36 64 80 134 44 71 80 132 80 135 0 3 -43 6 -95 6 -57 0 -95
-4 -95 -10z"/>
<path d="M5780 1196 c0 -118 1 -127 24 -153 21 -25 31 -28 81 -28 50 0 60 3
81 28 23 26 24 35 24 153 0 104 -2 124 -15 124 -12 0 -15 -20 -15 -120 0 -138
-10 -160 -75 -160 -65 0 -75 22 -75 160 0 100 -2 120 -15 120 -13 0 -15 -20
-15 -124z"/>
<path d="M4160 1269 c0 -22 -5 -32 -20 -36 -27 -7 -26 -23 1 -23 21 0 22 -3
15 -84 -7 -95 4 -120 52 -114 34 4 41 28 9 28 -33 0 -40 24 -32 105 7 60 9 65
31 65 13 0 24 5 24 10 0 6 -11 10 -25 10 -22 0 -25 4 -25 35 0 24 -5 35 -15
35 -10 0 -15 -10 -15 -31z"/>
<path d="M7070 1270 c0 -23 -5 -33 -20 -37 -25 -7 -26 -23 -2 -23 16 0 17 -8
14 -70 -2 -38 -1 -81 2 -94 7 -27 35 -41 66 -31 29 9 25 23 -7 27 -28 3 -28 4
-31 86 l-3 82 31 0 c37 0 40 18 3 22 -23 2 -27 8 -28 32 0 16 -6 31 -12 33 -9
3 -13 -6 -13 -27z"/>
<path d="M3708 1215 c-48 -47 -45 -139 4 -180 39 -33 81 -32 116 2 29 29 14
47 -17 19 -37 -33 -89 -13 -105 42 -7 21 -6 22 68 22 l76 0 0 34 c0 76 -89
114 -142 61z m92 -15 c11 -11 20 -29 20 -40 0 -18 -7 -20 -55 -20 -48 0 -55 2
-55 20 0 23 33 60 55 60 8 0 24 -9 35 -20z"/>
<path d="M3962 1224 c-12 -8 -22 -10 -22 -5 0 6 -7 11 -15 11 -12 0 -15 -18
-15 -105 0 -87 3 -105 15 -105 12 0 15 15 15 73 0 86 16 117 60 117 40 0 50
-23 50 -114 0 -61 3 -76 15 -76 12 0 15 15 15 74 0 76 -12 125 -33 138 -20 13
-61 9 -85 -8z"/>
<path d="M4342 1218 c-19 -19 -22 -20 -22 -5 0 9 -7 17 -15 17 -12 0 -15 -18
-15 -105 0 -87 3 -105 15 -105 12 0 15 14 15 65 0 81 20 125 55 125 16 0 25 6
25 15 0 22 -32 18 -58 -7z"/>
<path d="M4722 1224 c-12 -8 -22 -10 -22 -5 0 6 -7 11 -15 11 -12 0 -15 -18
-15 -105 0 -87 3 -105 15 -105 12 0 15 15 15 73 0 90 16 120 63 115 l32 -3 3
-92 c2 -74 6 -93 17 -93 12 0 15 16 15 76 0 90 10 114 48 114 44 0 52 -16 52
-107 0 -67 3 -83 15 -83 22 0 22 166 -1 198 -18 26 -59 29 -92 6 -21 -15 -25
-15 -41 0 -22 20 -60 20 -89 0z"/>
<path d="M5558 1220 c-15 -24 -28 -26 -28 -5 0 8 -6 15 -12 15 -10 0 -12 -26
-10 -105 3 -83 6 -105 18 -105 11 0 14 16 14 73 0 82 16 117 56 117 15 0 24 6
24 15 0 23 -48 19 -62 -5z"/>
<path d="M6112 1224 c-12 -8 -22 -10 -22 -5 0 6 -6 11 -12 11 -10 0 -13 -28
-13 -105 0 -87 3 -105 15 -105 12 0 14 13 12 67 -3 89 11 118 58 118 l35 0 3
-92 c2 -74 6 -93 17 -93 12 0 15 16 15 73 0 85 16 117 59 117 36 0 41 -13 41
-111 0 -64 3 -79 15 -79 12 0 15 17 15 93 0 78 -3 97 -18 110 -23 21 -61 22
-90 1 -21 -15 -25 -15 -41 0 -22 20 -60 20 -89 0z"/>
<path d="M6747 1215 c-28 -28 -40 -76 -31 -121 16 -79 98 -111 152 -57 29 29
14 47 -17 19 -10 -9 -29 -16 -44 -16 -25 0 -57 22 -57 40 0 5 -3 15 -6 24 -5
14 5 16 70 16 75 0 76 0 76 25 0 33 -25 81 -45 89 -35 13 -73 5 -98 -19z m93
-15 c11 -11 20 -29 20 -40 0 -17 -7 -20 -53 -20 -30 0 -56 3 -60 6 -8 9 19 61
35 67 24 10 38 7 58 -13z"/>
<path d="M7354 1217 c-20 -18 -28 -35 -31 -73 -11 -114 73 -173 149 -105 29
26 32 34 32 86 0 52 -3 60 -32 86 -40 36 -81 38 -118 6z m93 -21 c55 -48 29
-156 -38 -156 -59 0 -83 107 -34 155 30 31 37 31 72 1z"/>
<path d="M7618 1221 c-15 -25 -28 -27 -28 -6 0 8 -6 15 -12 15 -10 0 -13 -28
-13 -105 0 -87 3 -105 15 -105 12 0 15 16 16 75 1 83 18 115 61 115 30 0 26
24 -5 28 -13 2 -26 -5 -34 -17z"/>
<path d="M7730 1220 c-11 -11 -20 -29 -20 -40 0 -23 33 -60 55 -60 8 0 26 -5
40 -12 20 -9 25 -18 23 -37 -3 -22 -9 -26 -40 -29 -29 -2 -39 1 -48 17 -11 22
-40 29 -40 11 0 -6 11 -22 25 -35 48 -49 135 -24 135 39 0 38 -12 51 -65 69
-51 18 -67 43 -41 63 27 19 43 18 63 -6 18 -21 43 -27 43 -10 0 23 -41 50 -75
50 -22 0 -43 -8 -55 -20z"/>
<path d="M7939 1211 c-25 -26 -29 -37 -29 -86 0 -49 4 -60 29 -86 44 -44 100
-39 126 12 18 35 19 39 2 39 -8 0 -19 -11 -25 -25 -9 -18 -19 -25 -41 -25 -38
0 -61 31 -61 83 0 45 13 72 40 87 24 13 60 -3 60 -25 0 -17 17 -28 30 -20 13
8 -14 61 -35 69 -35 13 -67 5 -96 -23z"/>
<path d="M8646 1223 c-13 -13 -20 -15 -23 -5 -3 6 -10 12 -16 12 -9 0 -11 -30
-9 -105 3 -83 6 -105 18 -105 11 0 14 17 14 78 0 90 16 116 67 110 l28 -3 3
-92 c2 -74 6 -93 17 -93 12 0 15 18 15 94 0 87 -2 96 -22 110 -30 21 -69 20
-92 -1z"/>
<path d="M8873 1230 c-45 -19 -56 -77 -22 -111 l21 -21 -22 -15 c-16 -11 -18
-18 -10 -28 9 -10 6 -19 -9 -34 -26 -26 -26 -46 -2 -70 27 -27 82 -36 126 -21
73 24 71 103 -2 115 -72 12 -84 16 -81 27 2 6 25 17 51 25 50 14 64 38 55 88
-4 19 -1 25 13 25 11 0 19 5 19 10 0 6 -13 10 -29 10 -16 0 -41 2 -57 5 -16 2
-39 0 -51 -5z m78 -41 c17 -33 -3 -69 -39 -69 -33 0 -52 16 -52 45 0 29 19 45
52 45 18 0 31 -7 39 -21z m19 -184 c11 -12 12 -20 4 -33 -15 -23 -106 -29
-124 -8 -40 49 73 87 120 41z"/>
<path d="M4440 1145 c0 -78 2 -88 25 -110 28 -29 66 -32 91 -8 13 13 19 14 22
5 2 -6 9 -12 15 -12 9 0 11 30 9 105 -3 83 -6 105 -18 105 -11 0 -14 -17 -14
-76 0 -90 -10 -114 -48 -114 -44 0 -52 16 -52 107 0 67 -3 83 -15 83 -12 0
-15 -16 -15 -85z"/>
<path d="M5278 1135 c3 -84 6 -97 25 -110 28 -19 57 -19 85 1 12 8 22 10 22 5
0 -6 7 -11 15 -11 12 0 15 18 15 105 0 87 -3 105 -15 105 -12 0 -15 -15 -15
-73 0 -86 -16 -117 -61 -117 -38 0 -49 27 -49 121 0 48 -4 69 -12 69 -10 0
-12 -24 -10 -95z"/>
<path d="M6425 1123 c20 -70 36 -108 45 -108 9 0 24 32 41 85 15 48 29 79 32
70 3 -8 15 -48 27 -87 12 -43 26 -73 34 -73 8 0 24 37 41 98 15 53 30 103 32
110 3 6 -2 12 -10 12 -14 0 -29 -38 -53 -133 -9 -37 -15 -29 -40 56 -29 99
-45 99 -74 -3 -12 -44 -26 -80 -29 -80 -3 0 -15 36 -25 80 -15 61 -23 80 -36
80 -15 0 -13 -13 15 -107z"/>
<path d="M8370 1140 c0 -77 3 -93 20 -110 24 -24 57 -26 88 -4 12 8 22 10 22
5 0 -6 7 -11 15 -11 12 0 15 18 15 105 0 87 -3 105 -15 105 -12 0 -15 -15 -15
-73 0 -81 -16 -117 -54 -117 -38 0 -46 19 -46 107 0 67 -3 83 -15 83 -12 0
-15 -17 -15 -90z"/>
</g>
</svg>
